# xmcd
#
# Track frame offsets:
#	150
#	20710
#	34462
#	52426
#	74601
#	86581
#	102881
#	114779
#	143203
#	159247
#
# Disc length: 2426 seconds
#
# Revision: 1
# Processed by: cddbd v1.5.2PL0 Copyright (c) Steve Scherf et al.
# Submitted via: audiograbber 1.83.01
#
DISCID=8c09780a
DTITLE=Carol King - Simple Things
DYEAR=1900
DGENRE=
TTITLE0=Simple things
TTITLE1=Hold on
TTITLE2=In the namo of love
TTITLE3=Labyrinth
TTITLE4=Your're the one who knows
TTITLE5=Hard Rock Cafe
TTITLE6=Time alone
TTITLE7=God only knows
TTITLE8=To know that I love you
TTITLE9=One
EXTD=
EXTT0=
EXTT1=
EXTT2=
EXTT3=
EXTT4=
EXTT5=
EXTT6=
EXTT7=
EXTT8=
EXTT9=
PLAYORDER=
